<?xml version="1.0" encoding="utf-8"?>
<!-- Svg Vector Icons : http://www.onlinewebfonts.com/icon -->
<!DOCTYPE svg PUBLIC "-//W3C//DTD SVG 1.1//EN" "http://www.w3.org/Graphics/SVG/1.1/DTD/svg11.dtd">
<svg version="1.1" xmlns="http://www.w3.org/2000/svg" xmlns:xlink="http://www.w3.org/1999/xlink" x="0px" y="0px" viewBox="0 0 1000 1000" enable-background="new 0 0 1000 1000" xml:space="preserve">
<metadata> Svg Vector Icons : http://www.onlinewebfonts.com/icon </metadata>
<g><g transform="translate(0.000000,512.000000) scale(0.100000,-0.100000)"><path d="M4794.8,4998.1c-55.6-15.3-134.2-44.1-174.5-65.2c-90.1-46-255-191.7-289.5-256.9L4304,4628l-433.3-7.7c-419.9-5.7-437.1-7.7-538.8-55.6c-141.9-67.1-222.4-138-289.5-258.8l-57.5-101.6l-617.4-5.8c-602-5.7-619.3-7.7-699.8-49.8c-126.5-67.1-228.2-168.7-285.7-287.6l-53.7-109.3V-293.6V-4339l47.9-95.9c59.4-122.7,174.5-237.8,297.2-297.2l95.9-47.9H5000h3230.6l95.9,47.9c122.7,59.4,237.8,174.5,297.2,297.2l47.9,95.9v4045.4v4045.4l-53.7,109.3c-57.5,118.9-159.1,220.5-285.7,287.6c-80.5,42.2-97.8,44.1-699.8,49.8l-617.3,5.8l-57.5,101.6c-67.1,120.8-147.6,191.7-289.5,258.8c-101.6,47.9-118.9,49.8-536.8,55.6l-431.4,7.7l-51.8,72.9c-72.9,103.5-226.2,220.5-354.7,268.4C5149.5,5023,4927.1,5036.4,4794.8,4998.1z M5189.8,4566.7c82.4-40.3,149.6-118.9,203.2-233.9c55.6-122.7,94-130.4,642.3-130.4h483.2l55.6-55.6c51.8-51.8,55.6-67.1,55.6-201.3v-145.7H5000H3370.3v141.9c0,124.6,5.7,151.5,46,197.5l46,53.7l517.7,9.6l519.6,9.6l57.5,55.6c32.6,32.6,59.4,67.1,59.4,78.6c0,13.4,24.9,59.4,57.5,101.6C4794.8,4614.6,5003.8,4662.6,5189.8,4566.7z M2948.5,3684.7c0-126.5,32.6-210.9,99.7-256.9c38.3-26.8,253.1-30.7,1951.8-30.7c1733.2,0,1913.4,1.9,1953.7,30.7c61.3,44.1,97.8,141.9,97.8,266.5v105.4h527.2c590.5,0,623.1-5.7,672.9-124.6c23-55.6,26.9-638.4,26.9-3970.7c0-3514.4-3.8-3909.3-30.7-3966.8C8184.6-4396.5,8426.2-4387,5000-4387c-3426.2,0-3184.6-9.6-3247.9,124.6c-26.8,57.5-30.7,450.6-30.7,3964.9c0,2851,5.8,3917,21.1,3961.1c13.4,34.5,49.9,78.6,82.4,99.7c53.7,32.6,101.6,36.4,592.4,36.4h531.1V3684.7z"/></g></g>
</svg>